<svg width="990" height="995" xmlns="http://www.w3.org/2000/svg" xmlns:xlink="http://www.w3.org/1999/xlink" xml:space="preserve" overflow="hidden"><defs><clipPath id="clip0"><path d="M3448.65 1499.27 2928.74 1058.01 3393.3 510.64 3913.21 951.899Z" fill-rule="nonzero" clip-rule="nonzero"/></clipPath><clipPath id="clip1"><path d="M3448.65 1499.27 2928.74 1058.01 3393.3 510.64 3913.21 951.899Z" fill-rule="evenodd" clip-rule="evenodd"/></clipPath><clipPath id="clip2"><path d="M3448.65 1499.27 2928.74 1058.01 3393.3 510.64 3913.21 951.899Z" fill-rule="evenodd" clip-rule="evenodd"/></clipPath></defs><g transform="translate(-2924 -508)"><g><path d="M3421 615C3636.39 615 3811 789.609 3811 1005 3811 1220.39 3636.39 1395 3421 1395 3205.61 1395 3031 1220.39 3031 1005 3031 789.609 3205.61 615 3421 615Z" fill="#1B274C" fill-rule="evenodd" fill-opacity="1"/><g clip-path="url(#clip0)"><g clip-path="url(#clip1)"><g clip-path="url(#clip2)"><path d="M170.48 625.095C170.48 640.787 183.202 653.508 198.894 653.508 214.586 653.508 227.307 640.787 227.307 625.095 227.307 624.441 230.83 561.846 340.961 513.998 449.273 561.022 454.415 621.969 454.614 625.606 454.756 641.299 467.591 653.906 483.283 653.764 498.976 653.622 511.583 640.787 511.441 625.095 511.441 621.401 509.85 545.537 407.533 484.249 502.747 435.861 511.441 393.27 511.441 340.961 511.441 288.652 502.747 246.06 407.533 197.672 509.85 136.384 511.441 60.5205 511.441 56.8268 511.441 41.1346 498.72 28.4134 483.028 28.4134 467.335 28.4134 454.614 41.1346 454.614 56.8268 454.614 57.4803 451.091 120.075 340.961 167.923 231.74 120.501 227.307 58.9294 227.307 56.8268 227.307 41.1346 214.586 28.4134 198.894 28.4134 183.202 28.4134 170.48 41.1346 170.48 56.8268 170.48 60.5205 172.071 136.384 274.388 197.672 179.175 246.06 170.48 288.652 170.48 340.961 170.48 393.27 179.175 435.861 274.388 484.249 172.071 545.537 170.48 621.401 170.48 625.095ZM227.307 340.961C227.307 303.796 227.648 276.576 340.961 229.665 454.273 276.576 454.614 303.796 454.614 340.961 454.614 378.125 454.273 405.345 340.961 452.256 227.648 405.345 227.307 378.125 227.307 340.961Z" fill="#FFFFFF" fill-rule="nonzero" fill-opacity="1" transform="matrix(-0.76242 -0.647082 0.681255 -0.802684 3448.65 1499.27)"/></g></g></g></g></g></svg>